<svg width="343" height="376" viewBox="0 0 343 376" fill="none" xmlns="http://www.w3.org/2000/svg">
<rect x="220.5" y="41.1363" width="9" height="9" transform="rotate(45 220.5 41.1363)" fill="#F1F1F5"/>
<rect x="179.631" y="5.73395" width="12.5815" height="12.5815" transform="rotate(45 179.631 5.73395)" fill="#F1F1F5"/>
<rect x="276.896" y="110.897" width="10.5334" height="10.5334" transform="rotate(45 276.896 110.897)" fill="#F1F1F5"/>
<rect x="308.448" y="184" width="10.5334" height="10.5334" transform="rotate(45 308.448 184)" fill="#F1F1F5"/>
<rect x="340.725" y="245.276" width="7.3148" height="7.3148" transform="rotate(45 340.725 245.276)" fill="#F1F1F5"/>
<rect x="261.448" y="88.4483" width="3.85246" height="3.85246" transform="rotate(45 261.448 88.4483)" fill="#F1F1F5"/>
<rect x="13.5517" y="299.345" width="3.85246" height="3.85246" transform="rotate(-135 13.5517 299.345)" fill="#F1F1F5"/>
<rect x="268.724" y="42.0001" width="3.85246" height="3.85246" transform="rotate(45 268.724 42.0001)" fill="#F1F1F5"/>
<rect x="96.2763" y="375.793" width="3.85246" height="3.85246" transform="rotate(-135 96.2763 375.793)" fill="#F1F1F5"/>
<rect x="283.724" y="131" width="3.85246" height="3.85246" transform="rotate(45 283.724 131)" fill="#F1F1F5"/>
<rect x="280.724" y="174" width="3.85246" height="3.85246" transform="rotate(45 280.724 174)" fill="#F1F1F5"/>
<rect x="318.724" y="221" width="3.85246" height="3.85246" transform="rotate(45 318.724 221)" fill="#F1F1F5"/>
<rect x="177.724" y="94.0001" width="3.85246" height="3.85246" transform="rotate(45 177.724 94.0001)" fill="#F1F1F5"/>
<rect x="127.723" y="115" width="3.85246" height="3.85246" transform="rotate(45 127.723 115)" fill="#F1F1F5"/>
<rect x="141.724" y="66" width="3.85246" height="3.85246" transform="rotate(45 141.724 66)" fill="#F1F1F5"/>
<rect x="156.723" y="131" width="3.85246" height="3.85246" transform="rotate(45 156.723 131)" fill="#F1F1F5"/>
<rect x="229.724" y="167" width="3.85246" height="3.85246" transform="rotate(45 229.724 167)" fill="#F1F1F5"/>
<rect x="184.724" y="172" width="3.85246" height="3.85246" transform="rotate(45 184.724 172)" fill="#F1F1F5"/>
<rect x="148.808" y="11.749" width="6.91742" height="6.91742" transform="rotate(45 148.808 11.749)" fill="#F1F1F5"/>
<rect x="305.724" y="243" width="3.85246" height="3.85246" transform="rotate(45 305.724 243)" fill="#F1F1F5"/>
<rect x="298.724" y="115" width="3.85246" height="3.85246" transform="rotate(45 298.724 115)" fill="#F1F1F5"/>
<rect x="139.276" y="363.793" width="3.85246" height="3.85246" transform="rotate(-135 139.276 363.793)" fill="#F1F1F5"/>
<rect x="103.072" y="295.797" width="7.66617" height="7.66617" transform="rotate(-135 103.072 295.797)" fill="#F1F1F5"/>
<rect x="274.724" y="61.0001" width="3.85246" height="3.85246" transform="rotate(45 274.724 61.0001)" fill="#F1F1F5"/>
<rect x="90.2763" y="356.793" width="3.85246" height="3.85246" transform="rotate(-135 90.2763 356.793)" fill="#F1F1F5"/>
<rect x="211.724" y="33.0001" width="3.85246" height="3.85246" transform="rotate(45 211.724 33.0001)" fill="#F1F1F5"/>
<rect x="307.724" y="3.00006" width="3.85246" height="3.85246" transform="rotate(45 307.724 3.00006)" fill="#F1F1F5"/>
<rect x="10.2763" y="365.793" width="3.85246" height="3.85246" transform="rotate(-135 10.2763 365.793)" fill="#F1F1F5"/>
<rect x="196.724" y="-2.99994" width="3.85246" height="3.85246" transform="rotate(45 196.724 -2.99994)" fill="#F1F1F5"/>
<rect x="326.724" y="54.0001" width="3.85246" height="3.85246" transform="rotate(45 326.724 54.0001)" fill="#F1F1F5"/>
<rect x="340.724" y="86.0001" width="3.85246" height="3.85246" transform="rotate(45 340.724 86.0001)" fill="#F1F1F5"/>
<rect x="198.724" y="104" width="3.85246" height="3.85246" transform="rotate(45 198.724 104)" fill="#F1F1F5"/>
<rect x="319.448" y="9.00006" width="10.5334" height="10.5334" transform="rotate(45 319.448 9.00006)" fill="#F1F1F5"/>
<rect x="-1.4483" y="359.793" width="10.5334" height="10.5334" transform="rotate(-135 -1.4483 359.793)" fill="#F1F1F5"/>
<circle cx="237.5" cy="72.5001" r="4.5" fill="#F1F1F5"/>
<circle cx="177.5" cy="353.293" r="4.5" transform="rotate(-180 177.5 353.293)" fill="#F1F1F5"/>
<circle cx="330.5" cy="77.5001" r="2.5" fill="#F1F1F5"/>
<circle cx="211.5" cy="121.5" r="2.5" fill="#F1F1F5"/>
<circle cx="206.5" cy="12.5001" r="2.5" fill="#F1F1F5"/>
<circle cx="146.5" cy="122.5" r="2.5" fill="#F1F1F5"/>
<circle cx="304" cy="40.0001" r="6" fill="#F1F1F5"/>
<circle cx="13.9999" cy="328.793" r="6" transform="rotate(-180 13.9999 328.793)" fill="#F1F1F5"/>
<circle cx="258" cy="3.00006" r="6" fill="#F1F1F5"/>
<circle cx="59.9999" cy="365.793" r="6" transform="rotate(-180 59.9999 365.793)" fill="#F1F1F5"/>
<circle cx="255.5" cy="163.5" r="3.5" fill="#F1F1F5"/>
<circle cx="340.5" cy="191.5" r="3.5" fill="#F1F1F5"/>
<circle cx="312.5" cy="127.5" r="3.5" fill="#F1F1F5"/>
<circle cx="192.5" cy="94.5001" r="3.5" fill="#F1F1F5"/>
<circle cx="55.5" cy="2.5" r="3.5" fill="#F1F1F5"/>
</svg>
