<svg width="40" height="40" viewBox="0 0 40 40" fill="none" xmlns="http://www.w3.org/2000/svg">
<path d="M19.9965 24.2037C17.9092 24.2186 15.8079 24.2136 13.7088 24.2086C12.6623 24.2062 11.6163 24.2037 10.573 24.2037C9.27399 24.2227 8.22941 25.159 8.06823 26.4023L8.06819 26.4026C7.88529 27.8093 8.05584 29.0904 8.74787 30.2378C9.63466 31.6988 10.9721 32.7075 12.5856 33.4844L19.9965 24.2037ZM19.9965 24.2037C20.878 24.2037 21.7659 24.2097 22.6577 24.2157C24.7591 24.2298 26.8821 24.2441 28.9944 24.1809M19.9965 24.2037L28.9944 24.1809M28.9944 24.1809C30.8722 24.1325 31.9983 25.6555 32 27.1666C31.9894 28.5817 31.6179 29.702 30.9881 30.6315C30.3498 31.5736 29.411 32.3707 28.1953 33.0711L28.1948 33.0713C25.6783 34.5231 22.8571 35.0207 19.8654 34.9992L28.9944 24.1809ZM19.8652 34.9992C17.2904 34.9776 14.8405 34.568 12.5862 33.4847L19.8652 34.9992Z" stroke="#D5D5DC" stroke-width="2"/>
<path d="M19.975 5.00009C23.8742 4.98042 27.0641 8.10859 27.1051 11.9406C27.1234 15.7683 23.9323 18.9804 20.0103 19.0001C16.0919 19.0198 12.8817 15.83 12.8802 12.0027C12.9014 8.17032 16.0724 5.01978 19.975 5.00009Z" stroke="#D5D5DC" stroke-width="2"/>
</svg>
